<svg xmlns="http://www.w3.org/2000/svg" viewBox="0 0 610.17 274.64"><defs><style>.cls-1{fill:#e5e7eb;}.cls-2{fill:#f97316;}</style></defs><g id="Capa_2" data-name="Capa 2"><g id="Capa_1-2" data-name="Capa 1"><path class="cls-1" d="M233.91,46.6v.65c.08-.36.15-.72.22-1.09Z"/><path class="cls-1" d="M271.75,171.08V169a.47.47,0,0,1,.52-.52l.35-.06c1.05-6.4,1.84-12.6,1-18.18a279.89,279.89,0,0,1-4.37-29.5l-1.18.94a9.12,9.12,0,0,1-1-2.6c0-.34.52-1,1.56-2.08H269q-.81-9.89-1-19.78a7.73,7.73,0,0,0-4.56.54l-1.56,1.56H253l-2.6-2.08h-4.16a2.7,2.7,0,0,1-1,1.3,4.62,4.62,0,0,0-1,.78h-4.68l-2.08-2.08h-8.84L227,99.32H212.47a8.78,8.78,0,0,0-2.08.26,8.18,8.18,0,0,1-2.08.26c-1,0-1.21.7-.52,2.08a3.48,3.48,0,0,0,1.56-.26,1.88,1.88,0,0,1,1.56.26.92.92,0,0,1,1,1c-.69.7-1.21,1-1.56,1a2,2,0,0,1-1.3-.26,1.06,1.06,0,0,0-.78-.26c-.69-.69-.86-1.21-.52-1.56h-3.64l-2.08-2.6h-13a6.94,6.94,0,0,1-1.56,1.3,2.94,2.94,0,0,0-1,1.3,4.67,4.67,0,0,0-2.08-.52l-2.6-2.08h-92L86.11,96.2V7.8A1.49,1.49,0,0,0,84.29,7c-.86.18-1.64-.26-2.34-1.3a2.94,2.94,0,0,1,1-1.3,3.77,3.77,0,0,0,1-.78c-.69-.69-1.21-1-1.56-1H80.91l-2.6,2.08H75.19V7.8l2.08,2.6a8.8,8.8,0,0,1-2.6,1c-.34,0-1.21-.69-2.6-2.08h-.52L70,10.92l-2.6-2.08c-.69-.69-.86-1-.52-1a1.68,1.68,0,0,1,1.56-1H70L71,5.2c.35,0,.52-.08.52-.26s.18-.26.52-.26h3.12a1.69,1.69,0,0,0-.52-2.08,29.92,29.92,0,0,0-7.8,0L65.31,4.68a2.81,2.81,0,0,0-1-1.3,4.09,4.09,0,0,1-1-.78H59.07a7.56,7.56,0,0,0-1.56-1.3,2.82,2.82,0,0,1-1-1.3H54.39l-2.6,2.08a4.22,4.22,0,0,0-1-.78,2.82,2.82,0,0,1-1-1.3A14.4,14.4,0,0,1,45,.26a11.49,11.49,0,0,0-4.16.26,1.21,1.21,0,0,0-1.3.78,1.19,1.19,0,0,1-1.3.78L36.71.52,34.63,2.08,32,0H25.79l-2.6,2.08L21.11.52H17a2.94,2.94,0,0,0-1.3,1c-.17.35-.6.52-1.3.52L12.27.52H6c-.34,0-.86.35-1.56,1L2.39,3.64V16.12c0,.35.35.87,1,1.56H5.51a9,9,0,0,1,1,2.6,5.24,5.24,0,0,1-1,2.08L3.69,20.54c-.17-.17-.6-.08-1.3.26v2.6c1,1,2.95,1.22,5.72.52l2.08-1.56L12,24.18A6.84,6.84,0,0,1,13.31,26a3.48,3.48,0,0,1-.26,1.56,3.69,3.69,0,0,0-.26,1.56,36.81,36.81,0,0,1-4.68-.26,15,15,0,0,0-4.68.26H2.91l-.52,1v23.4c0,.35.35.87,1,1.56q3.65,0,4.68-1.56c0-1.73.52-2.6,1.56-2.6s1.91-.69,2.6-2.08a4.23,4.23,0,0,1,1,3.12l-1.56,1.56-1.56,1.56h-1a2.12,2.12,0,0,0-.52-1.56c-.34-.34-.52-.34-.52,0q1.56,3.64,0,3.64A7.17,7.17,0,0,1,5,57.72c-1.73,0-2.6.7-2.6,2.08V76.44a2.94,2.94,0,0,0-1.3,1,3.77,3.77,0,0,1-.78,1V80.6l2.08,2.6v4.16l2.08,2.08L3.43,91c-.69.35-1,1.22-1,2.6l2.08,2.6L2.39,98.8v28.08l-2.08,2.6c1.74.7,2.52,1.65,2.34,2.86a36.31,36.31,0,0,1-.78,3.9L.31,137.8a26.59,26.59,0,0,1-.26,3.9,4.73,4.73,0,0,0,.78,3.38l1.56,1.56v15.6l-2.08,2.6v46.28l2.08,2.08v2.08l-2.08,2.6v48.36l3.12,3.12H5.51l2.6,2.08,2.08-2.08h31.2c1.74,1.73,2.78,2.6,3.12,2.6s1.39-.7,3.12-2.08l.52-.52h36.4a2.08,2.08,0,0,0,1.56-.52v-91l1-1h2.08c.35,0,.52-.08.52-.26s.18-.26.52-.26l1.56-1.56h28.6a2.94,2.94,0,0,1,1-1.3,3.77,3.77,0,0,0,1-.78l2.6,2.08H147l2.6-2.08,1.56,1.56q7.29.53,17.94.52T187,174.2l1.56-1.56,2.6,2.08a7.39,7.39,0,0,1,3.12-.52,25.12,25.12,0,0,1,.52-5.72c0-.69.7-1,2.08-1a13.39,13.39,0,0,1,2.34-3.38l2.86-2.86a7.32,7.32,0,0,1,3.12.52,3,3,0,0,1,.52,2.08,2.42,2.42,0,0,0-.26,1.82,5.59,5.59,0,0,1,.26,1.82,5.87,5.87,0,0,0-1.82.26,17,17,0,0,0-1.82.78.86.86,0,0,0-.78.52,2.7,2.7,0,0,1-1.3,1,3.37,3.37,0,0,1-1.56-1.56,1,1,0,0,0-1.56-.52v3.12L200,174.2h15.6l2.08-2.08h2.08l2.08,2.6h11.44a2.94,2.94,0,0,1,1-1.3,3.77,3.77,0,0,0,1-.78h4.16a1.51,1.51,0,0,1,1,.52c.7.7,1.22,1,1.56,1,1.74-1.38,2.78-2.08,3.12-2.08s1.39.7,3.12,2.08h6.76l2.08-1.56,4.68,4.16,2.6-2.6a6.28,6.28,0,0,0,3.12.26,6.52,6.52,0,0,1,3.12.26l.73.73c.23-1.39.47-2.78.7-4.16ZM3.43,238.68l-.52-1c-.69-.69-.52-1,.52-1,0-.34.35-.17,1,.52A1.64,1.64,0,0,1,3.43,238.68ZM6.81,222.3a1,1,0,0,1-.78.26c-.34.35-.86.18-1.56-.52l1-1a.92.92,0,0,1,1,1C6.9,222,7,222.13,6.81,222.3ZM4.47,179.92q2.09-2.07,4.68,0Q6.56,182.53,4.47,179.92Zm6.24-98.8a.46.46,0,0,1-.52.52c-.69,0-1-.17-1-.52a.47.47,0,0,1,.52-.52,1.55,1.55,0,0,1,.52-1C10.89,80.26,11.06,80.78,10.71,81.12Zm11.44,92.56-.52.52a1.66,1.66,0,0,1-1.56-1l.52-.52A1.66,1.66,0,0,1,22.15,173.68ZM19.55,54.6A14.16,14.16,0,0,1,17,57.72h-2.6l-.52-1v-.52A18.66,18.66,0,0,1,19,51Q21.12,53,19.55,54.6ZM19,46.8c0-.34.09-.43.26-.26a1.05,1.05,0,0,1,.26.78c.35.35.18.87-.52,1.56l-1-1A.92.92,0,0,1,19,46.8ZM15.91,21.32a.92.92,0,0,1,1-1l1,1c-.69.7-1.21.87-1.56.52a1.05,1.05,0,0,1-.78-.26C15.48,21.41,15.57,21.32,15.91,21.32Zm0,13V32.24a.92.92,0,0,1,1-1l1,1V36.4a5.24,5.24,0,0,1-2.08,1,9,9,0,0,1-2.6-1ZM18.25,262.6H16.43a3,3,0,0,1-3.12-1c.7-.69,2.08-1,4.16-1,1.39,0,2.26.35,2.6,1A2.81,2.81,0,0,1,18.25,262.6Zm1.82-82.68c1.74-1.73,3.12-1.73,4.16,0C23.19,181.66,21.81,181.66,20.07,179.92Zm3.12-122.2c-.69-.69-1-2.08-1-4.16a3.55,3.55,0,0,1,1-2.6,2.84,2.84,0,0,1,1,1.82V54.6A3,3,0,0,1,23.19,57.72Zm4.68,200.72-1-.52a1.68,1.68,0,0,1,1-1.56l.52.52C28.74,257.23,28.57,257.75,27.87,258.44Zm4.68-234a14.9,14.9,0,0,0-2.86.26,2.45,2.45,0,0,1-2.34-.78c-1.38,0-1.56-.52-.52-1.56H23.71c-.69,0-1-.52-1-1.56,0-.69.52-.86,1.56-.52h1.56a2.09,2.09,0,0,1,1,2.08H32l1,1ZM37.23,41.6l-.52.52a1.66,1.66,0,0,1-1-1.56c.35,0,.52-.08.52-.26s.18-.26.52-.26C37.41,40.74,37.58,41.26,37.23,41.6Zm0-29.12a1.47,1.47,0,0,1-.52,1,1.66,1.66,0,0,1-1-1.56,1.55,1.55,0,0,1,1-.52C37.75,11.44,37.93,11.79,37.23,12.48Zm2.08,17.68a1.47,1.47,0,0,1-.52,1c-.69-.69-.86-1.21-.52-1.56a.47.47,0,0,1,.52-.52C39.83,29.12,40,29.47,39.31,30.16ZM80.91,15.6l.52.52c.35.35.18.87-.52,1.56l-1-.52A1.68,1.68,0,0,1,80.91,15.6ZM65.83,39a.47.47,0,0,0-.52.52c-.69,0-1-.52-1-1.56a2.16,2.16,0,0,1,.52-1.56c0-.69.52-1,1.56-1V32.24l-2.08-2.08V28.08c.7-1.38,1.56-1.82,2.6-1.3a2.05,2.05,0,0,0,2.6-.26l1,1a25.37,25.37,0,0,1,0,7.28c-.34.35-1.73.52-4.16.52v3.12A.46.46,0,0,1,65.83,39Zm-.52,20.8-.52-.52c-.34-.34-.17-.86.52-1.56l.52.52C66.18,58.59,66,59.11,65.31,59.8ZM62.71,9.36a2.13,2.13,0,0,1,1.56.52l-1,1h-.52l-.52-1Zm0,13.52c0-.69.52-.86,1.56-.52v-5.2a2.41,2.41,0,0,1,2.6-1.56c1,0,1.56.35,1.56,1a5,5,0,0,0,2.08,4.16c0,1-.34,1.56-1,1.56h-5.2a1.47,1.47,0,0,1-.52,1v.52c-.34,0-.52.09-.52.26s-.17.26-.52.26Q61.68,23.93,62.71,22.88Zm1,146.64-.52.52h-1c-2.08,0-2.77-.52-2.08-1.56a1.71,1.71,0,0,1,2.08-.52h1C63.93,168.66,64.1,169.18,63.75,169.52ZM58,29.64l.52-.52.52.52a.46.46,0,0,1,.52.52v3.12h1c.7.7,1,1.22,1,1.56h-1l.52.52-1.56-1V33.8Q56.47,32.77,58,29.64ZM56,18.72c0-.34.09-.52.26-.52s.26-.17.26-.52c.7.7.87,1.22.52,1.56a1,1,0,0,1-.26.78c-.17.18-.26.09-.26-.26C55.43,19.76,55.26,19.42,56,18.72Zm1.56,30.16c1.39,0,2.08.52,2.08,1.56a3,3,0,0,1-2.08.52v5.2a.91.91,0,0,1-1,1l-1-.52a15.63,15.63,0,0,0-.26-2.6,2.84,2.84,0,0,1,.78-2.6c0-.34.52-.52,1.56-.52V48.88a2.46,2.46,0,0,1-2.08-2.6c-1.38,0-2.08-.52-2.08-1.56.7,0,1.39.52,2.08,1.56A2.46,2.46,0,0,1,57.51,48.88Zm-5.2-24.44h1a2.13,2.13,0,0,1,1.56.52q.53,1.56-1.56,1.56h-1a1.5,1.5,0,0,1-1-.52A1.68,1.68,0,0,1,52.31,24.44Zm-1,18.72a1,1,0,0,1,1.56-.52,2.12,2.12,0,0,1,.52,1.56h-1c-.34,0-.52-.08-.52-.26s-.17-.26-.52-.26ZM47.11,33.8l.52-.52c.7.7.87,1.22.52,1.56l-.52.52C46.94,34.67,46.77,34.15,47.11,33.8Zm0,147.16a1.5,1.5,0,0,0-.52-1c.7-.69,1.22-.86,1.56-.52l.52.52A1.64,1.64,0,0,1,47.11,181Zm2.6-79c-.69-.69-.86-1.21-.52-1.56a1.55,1.55,0,0,1,.52-1,1.66,1.66,0,0,1,1,1.56Zm2.08-51a.47.47,0,0,0-.52.52l-1,1a.46.46,0,0,1-.52.52c-1-.34-1.21-.86-.52-1.56s1.22-.86,1.56-.52v-1l1.56-1-1,1.56,1-1h.52C52.83,49.75,52.49,50.27,51.79,51ZM54.39,170l-1-.52a1.68,1.68,0,0,1,1-1.56l.52.52C55.26,168.83,55.09,169.35,54.39,170ZM57,183a1.66,1.66,0,0,1-1.56-1l.52-.52a1.66,1.66,0,0,1,1.56,1ZM53.87,66l-.52-.52.52-.52c0-.34.09-.52.26-.52s.26-.17.26-.52h3.12q.52-2.6,3.64-1.56l.52.52v.52a1.47,1.47,0,0,1-1,.52,1.81,1.81,0,0,1-1.56.26A3.63,3.63,0,0,0,57.51,64C57.17,65.7,56,66.39,53.87,66Zm9.88,196c0,.35-.08.52-.26.52s-.26.18-.26.52l-2.08-2.6c-2.08,0-3.12-.17-3.12-.52-.34-.69-.26-1.12.26-1.3a2.32,2.32,0,0,0,1.3-1.3l.52-.52c.35,0,.52-.08.52-.26s.18-.26.52-.26h2.08l.52.52A12.88,12.88,0,0,1,63.75,262.08Zm-1.56-15.6q1.56-2.59,4.16,0Q63.76,249.09,62.19,246.48Zm15.08,2.6a3.2,3.2,0,0,1-2.34,1c-.86,0-1.3-.34-1.3-1-.69-.69-.69-1,0-1l.52-.52h2.08c.35,0,.52.09.52.26s.18.26.52.26Zm1.56-200.2a1.66,1.66,0,0,1-1-1.56,1.1,1.1,0,0,1,.26-.78c.18-.17.26-.08.26.26a.92.92,0,0,1,1,1A1.55,1.55,0,0,0,78.83,48.88Zm1.56-13.52-.52.52v.52L77.79,39a.87.87,0,0,0-.26,1q.27.52-.78,1.56c-.34.35-1.21.52-2.6.52a3.46,3.46,0,0,0-1.56,1.56A1,1,0,0,1,71,44.2V53h3.12a3.51,3.51,0,0,1,1,2.6v2.6c0,.35-.34.87-1,1.56H72.07q-1-1,1-3.12a3.37,3.37,0,0,0-1.56-1.56c-.69-.34-.86-1-.52-2.08A1.69,1.69,0,0,1,69,52.52a9.74,9.74,0,0,1-.78-2.34,4.51,4.51,0,0,0-1.3-2.34q-1.56-1.56,1-3.64H71v-1a2.81,2.81,0,0,1-1.3-1,4.09,4.09,0,0,0-.78-1l5.2-5.72h5.72c-.69,0-.69-.34,0-1l1-1a2.16,2.16,0,0,0-.52,1.56.47.47,0,0,1,.52-.52h.52A.91.91,0,0,1,80.39,35.36ZM83,24.44l-1-1a1.51,1.51,0,0,1-.52-1h-.52a.46.46,0,0,1-.52-.52,1.51,1.51,0,0,1-.52-1,2.16,2.16,0,0,1,1.56-.52A3,3,0,0,1,82,22.36h1l1,1a2.12,2.12,0,0,1-1.56-.52C83.86,23.92,84,24.44,83,24.44Zm18.2,145.08-.52.52c-1-.34-1.21-.86-.52-1.56l.52-.52C101.37,168.66,101.54,169.18,101.19,169.52ZM110,134.16a2.11,2.11,0,0,1-3.64,0v-1c.35,0,.52-.08.52-.26s.18-.26.52-.26h2.08l.52.52Zm12.48-28.6a1.5,1.5,0,0,1-1-.52c.7-.69,1.22-.86,1.56-.52a.46.46,0,0,1,.52.52C123.55,106.08,123.21,106.26,122.51,105.56Zm5.46,57.2c-.17,0-.26.18-.26.52a1.66,1.66,0,0,1-1.56-1l.52-.52c.35-.34.87-.17,1.56.52C128.23,162.59,128.15,162.76,128,162.76ZM149,168l-.52-1c-.34,0-.17-.34.52-1l1,.52A1.64,1.64,0,0,1,149,168Zm32.76-30.16c0-.69.52-1,1.56-1l1,.52a.92.92,0,0,1,1,1l-1,1h-1a2.12,2.12,0,0,1-1.56-.52A.66.66,0,0,1,181.79,137.8ZM188,149.24v2.08c-.34,0-.52.09-.52.26s-.17.26-.52.26c-.69.7-1.21.52-1.56-.52a9.87,9.87,0,0,0-.78-2.86,3.49,3.49,0,0,0-1.82-.26h-4.68c-1,0-1.56-.86-1.56-2.6,0-.34.09-.52.26-.52s.26-.17.26-.52a2.5,2.5,0,0,1,2.34-.78,5.44,5.44,0,0,0,2.86-.26l2.08-2.08h2.08l3.12,3.12a3,3,0,0,1,.52,2.08Zm7.28,14-.52-.52c-.34-.34-.17-.86.52-1.56l1,1A.91.91,0,0,1,195.31,163.28Zm5.2-43.68c0,.35.09.52.26.52s.26.18.26.52c-.69.7-1.21.87-1.56.52l-.52-.52A1.68,1.68,0,0,1,200.51,119.6Zm1,10.4a2.13,2.13,0,0,1-.52-1.56l-.05,0-.47,0-.36-.37c-.43-.22-.68-.44-.68-.67a.46.46,0,0,1-.52-.52c.35-1,.87-1.21,1.56-.52s.87,1.22.52,1.56a.46.46,0,0,1-.21.44l.16.06a18.13,18.13,0,0,0,2.65-.24,4.27,4.27,0,0,1,2.6.26.92.92,0,0,1,1,1l-.52.52A12.88,12.88,0,0,1,201.55,130Zm7.28,40a1.47,1.47,0,0,1-1,.52l-.52,1a1.47,1.47,0,0,1-1,.52,2.13,2.13,0,0,1-.52-1.56,2.16,2.16,0,0,1,1.56-.52l.52-1,1-1a4.18,4.18,0,0,0-.52,1.56c.35-.69.7-1,1-1a.46.46,0,0,1,.52.52ZM219,163.8a1.86,1.86,0,0,1-1.82-1,.46.46,0,0,1-.52-.52,2.11,2.11,0,0,1,3.64,0,.46.46,0,0,1,.52.52A1.84,1.84,0,0,1,219,163.8Zm5.46-33.28-1-1a.92.92,0,0,1,1-1l.52.52A2.08,2.08,0,0,1,224.43,130.52Zm6,36.66a1.06,1.06,0,0,0-.78-.26.46.46,0,0,1-.52-.52l2.08,1A1.05,1.05,0,0,1,230.41,167.18Zm-.78-1.3h-.52c-.69-.34-1-.69-1-1l-.52-.52c.7-.69,1.22-.86,1.56-.52a3,3,0,0,1,.52,2.08h1l1,1Zm6.24-12a2.11,2.11,0,0,1-3.64,0v-.52l1-1h2.08l.52,1Zm-1.56-15.6c0-.34.09-.52.26-.52s.26-.17.26-.52a1.66,1.66,0,0,1,1.56,1l-.52.52C235.53,139.19,235,139,234.31,138.32Zm6.24,8.84c-1,1.74-2.42,1.74-4.16,0C238.13,145.43,239.51,145.43,240.55,147.16Zm.52,10.4c0,.35-.08.52-.26.52s-.26.18-.26.52c-.34,0-.52.09-.52.26s-.17.26-.52.26c-1.38,0-2.25-.34-2.6-1s-.26-1,.26-1,1-.34,1.3-1l.52-.52,1-1a1.16,1.16,0,0,0,1.3.26c.52-.17,1,.09,1.3.78C242.63,155.83,242.11,156.52,241.07,157.56Zm27.56-5.2.52,1a.91.91,0,0,1-1,1l-.52-.52A1.68,1.68,0,0,1,268.63,152.36Zm-2.6-13,1,.52a1.64,1.64,0,0,1-1,1.56l-.52-.52C265.17,140.58,265.34,140.06,266,139.36Zm-4.16-31.2.52,1c.7.7.52,1-.52,1,0,.35-.34.18-1-.52A1.68,1.68,0,0,1,261.87,108.16Zm1,30.16q-2.6,2.61-4.68,0Q260.32,136.25,262.91,138.32Zm-2.6-4.16-.52.52h-2.6l-2.08,2.6a8,8,0,0,1-1-3.12,10.54,10.54,0,0,1,2.6-3.38q1.56-1.29,3.12-2.34l.52.52A6.7,6.7,0,0,1,260.31,134.16Zm-12-23.4c1.74,0,2.78.18,3.12.52,0,.35-.52,1-1.56,2.08,0,.35-.08.52-.26.52s-.26.18-.26.52c-.34,0-.52.09-.52.26s-.17.26-.52.26A3.16,3.16,0,0,1,248.35,110.76Zm-1.56,56.16a1.47,1.47,0,0,1-.52,1c-.69-.69-.86-1.21-.52-1.56l.52-.52C247,166.58,247.14,166.92,246.79,166.92Zm3.64-36.4-.52.52a2.47,2.47,0,0,1-3.64,1.56l-1-1,.52-.52a.47.47,0,0,1,.52-.52h3.12v-1c.7-.69,1.22-1,1.56-1,0,.35-.08.52-.26.52s-.26.18-.26.52a1.55,1.55,0,0,1,1-.52C251.47,129.31,251.13,129.83,250.43,130.52Zm1.56-5.2a21.42,21.42,0,0,1,0-9.36.92.92,0,0,1,1-1l.52.52a1.69,1.69,0,0,1,.52,2.08,2.25,2.25,0,0,0,0,2.08,3,3,0,0,0,1,2.08,2.94,2.94,0,0,1,1-1.3,3.77,3.77,0,0,0,1-.78h2.08q2.09.53,1,3.64l-2.6,2.6H253A1.5,1.5,0,0,1,252,125.32Zm2.6,40-.52-.52a1.68,1.68,0,0,1,1.56-1c0,.35.09.52.26.52s.26.18.26.52C255.46,165.54,254.94,165.71,254.59,165.36Zm-.52-20.8,3.12-3.12q3.65,0,3.64,2.6a3.48,3.48,0,0,1-.26,1.56,3.69,3.69,0,0,0-.26,1.56.46.46,0,0,1-.52.52,4.54,4.54,0,0,1-2.08.52A18.2,18.2,0,0,1,254.07,144.56Zm13,21.32a8.61,8.61,0,0,0-4.16,0c-.34,1.74-1.56,2.43-3.64,2.08,0-.34-.08-.52-.26-.52s-.26-.17-.26-.52v-.52a1.55,1.55,0,0,1,1-.52h3.12a1.71,1.71,0,0,1,.52-2.08,15.53,15.53,0,0,0,2.6-.26,16.78,16.78,0,0,1,2.6-.26c1-1,1.74-1.56,2.08-1.56.7.35,1,1.22,1,2.6a1.55,1.55,0,0,0-.52,1A5.81,5.81,0,0,1,267.07,165.88Z"/><path class="cls-1" d="M207.91,160.48a1.55,1.55,0,0,0-.52,1l.52.52a2.08,2.08,0,0,0,.52-1.56Z"/><path class="cls-1" d="M379.7,167.76l-1-1v.52A1.47,1.47,0,0,0,379.7,167.76Z"/><path class="cls-1" d="M241.87,159.07l.36.37a.57.57,0,0,0,.31-.08A5.57,5.57,0,0,1,241.87,159.07Z"/><polygon class="cls-1" points="37.88 66.36 37.88 66.88 38.4 65.84 37.88 66.36"/><path class="cls-1" d="M18.63,65.84c0-.34-.34-.86-1-1.56v.52Z"/><path class="cls-1" d="M244.83,162a1.51,1.51,0,0,1,1,.52c0-.34-.08-.52-.26-.52s-.26-.17-.26-.52A.47.47,0,0,0,244.83,162Z"/><path class="cls-1" d="M258.87,155.28l-.52.52a1.66,1.66,0,0,0,1.56,1,1.55,1.55,0,0,1,.52-1C259.74,155.11,259.22,154.94,258.87,155.28Z"/><path class="cls-1" d="M242.54,159.36a.57.57,0,0,1-.31.08,4.63,4.63,0,0,1,.54,0l0,0Z"/><polygon class="cls-1" points="276.04 64.28 275.51 64.28 276.04 64.8 276.04 64.28"/><path class="cls-1" d="M253.93,146.18a.53.53,0,0,0,.1.06l.17-.32h-.34A.4.4,0,0,0,253.93,146.18Z"/><path class="cls-1" d="M8.75,82.48h.52v-1A1.47,1.47,0,0,1,8.75,82.48Z"/><polygon class="cls-1" points="165.28 201.04 165.79 201.56 165.79 201.04 165.28 201.04"/><path class="cls-1" d="M158.15,159.07l.36.37a.57.57,0,0,0,.31-.08A5.57,5.57,0,0,1,158.15,159.07Z"/><path class="cls-1" d="M158.51,159.44l.47,0-.16-.06A.57.57,0,0,1,158.51,159.44Z"/><path class="cls-1" d="M246.91,213h.52s0,0,0,0a1.84,1.84,0,0,1,1,.48c0-.34-.34-.86-1-1.56C247.09,212,246.91,212.31,246.91,213Z"/><path class="cls-2" d="M391.25,129.56v.52l-2.08,2.08v4.16a2.49,2.49,0,0,1-2.6,1.3,16.78,16.78,0,0,0-2.6-.26l-2.6-2.08h-4.16l-2.6,2.6a7.81,7.81,0,0,1-1-3.12l2.08-2.6v-2.08q-1-1.56-1.56-1.56a7.51,7.51,0,0,0-2.6,1.56v4.16a9,9,0,0,1-2.6,1c-1.39-.34-2.78-1.56-4.16-3.64v-2.08l-4.16-3.64v-2.6l-6.76-6.76v-2.08q-2.61-1-2.34-3.12a2.9,2.9,0,0,0-1.82-3.12c-.35-.34,0-.86,1-1.56h2.08c.34,0,.52-.34.52-1,.69-.69.34-1-1-1H346l-1-1V101q-1.56-1.56-3.38-3.12a22.29,22.29,0,0,1-3.38-3.64V90L332,83.8V81.2L325.21,75a4.18,4.18,0,0,0-.52-2.6,4,4,0,0,0-1.3-1.56,3.78,3.78,0,0,1-1.3-1.56h-9.36a.84.84,0,0,1-.52.78.84.84,0,0,0-.52.78V213.29l2.08,2.59a4.54,4.54,0,0,0,.52,2.08,5.62,5.62,0,0,0-2.08,2.6l2.08,2.08v10.92l-2.6,2.6a4.54,4.54,0,0,0,.52,2.08l1.56,2.08v8.84l-1.56,1.56a6.28,6.28,0,0,0-.26,3.12,9.2,9.2,0,0,1-.26,3.64V268.4a8,8,0,0,0-1.56,2.08,3.37,3.37,0,0,1-1.56,1.56H233.69l-3.64-3.12V200.8l4.68-4.68-1-1a1.89,1.89,0,0,0-1.56-.26,1.81,1.81,0,0,1-1.56-.26,7.17,7.17,0,0,1-.52-3.12v-70.2l4.16-4.16q.51-2.6,0-3.12a7.78,7.78,0,0,0-3.12-1,.46.46,0,0,1-.52-.52,18.11,18.11,0,0,1-.52-5.2V6.84c1.38-2.08,2.6-3.29,3.64-3.64h6.24L242,1.12c.34,0,.52-.08.52-.26s.17-.26.52-.26h12.48a4.62,4.62,0,0,1,.78,1,2.7,2.7,0,0,0,1.3,1,3.05,3.05,0,0,1,2.08.52l2.6-2.6h21.84l2.6,2.6h3.12c-.7-1.38-.52-2.08.52-2.08A7.32,7.32,0,0,1,293.49.6h32.24l2.6,2.08a4.74,4.74,0,0,1,2.08.52,2.81,2.81,0,0,1,1-1.3A7.41,7.41,0,0,0,333,.6h37.44a2.7,2.7,0,0,0,1,1.3,4.62,4.62,0,0,1,1,.78A3.12,3.12,0,0,0,374.61.6a5.92,5.92,0,0,0,4.68,2.6l3.12,3.12V8.4Q385,11,385,13.08l6.24,6.24V24c1,1,2.16,2.08,3.38,3.12A23.17,23.17,0,0,1,398,30.76a4.2,4.2,0,0,0,1,3.12c1,1,1.47,1.82,1.3,2.34A10.94,10.94,0,0,1,398,39.08c0,.35.34.87,1,1.56h4.68c.69.7,1,1.22,1,1.56v1.56L411,50.52c0,.7.08,1.13.26,1.3a1.1,1.1,0,0,1,.26.78l3.64,4.16a4.31,4.31,0,0,1,.52,1.82,2.81,2.81,0,0,0,1,1.82l3.12,3.12V65.6l2.6,2.6v2.08c.69.7,1.21,1,1.56,1,1.73,0,2.6.52,2.6,1.56a3.16,3.16,0,0,0,.52,1.82,19.31,19.31,0,0,1,1,1.82,2.88,2.88,0,0,1,1,1.82,4.13,4.13,0,0,0,.52,1.82h2.6l3.12,3.12V88l7.8,7.8a2.88,2.88,0,0,1,1,1.82,4.13,4.13,0,0,0,.52,1.82l3.64,3.64a5.73,5.73,0,0,0,.52,2.6,4.62,4.62,0,0,1,.78,1,2.7,2.7,0,0,0,1.3,1v3.12l4.16,3.12a3.48,3.48,0,0,0,.26,1.56,3.69,3.69,0,0,1,.26,1.56l3.64,3.64a3.47,3.47,0,0,1,.52,3.12,6.41,6.41,0,0,0,0,3.64,18,18,0,0,1,2.08,2.6,2.1,2.1,0,0,0,2.6,1l6.24,5.2v2.6l6.76,6.24v4.16l2.08,2.6c-.7.7-1.22,1-1.56,1a14.32,14.32,0,0,1-5.46,0,9.81,9.81,0,0,0-5.46.52l-.52.52.52,1h5.46a37.2,37.2,0,0,1,6,.52l2.08,1.56a2.38,2.38,0,0,1,1,.26,2.2,2.2,0,0,0,1,.26l9.88,9.88v4.16q2.6,2.61,4.68,4.42a35.87,35.87,0,0,1,4.16,4.42v4.69l6.76,6.23c0,1.39.17,2.26.52,2.6l3.64,4.17a6.6,6.6,0,0,0,2.6,4.15V205l2.08,2.08c0,1.74.34,2.78,1,3.12.34,0,1-.52,2.08-1.56l1-1c.34-.34.52-.6.52-.77s.34-.44,1-.79h2.08a.84.84,0,0,1,.52-.78.84.84,0,0,0,.52-.78V170.12a16.78,16.78,0,0,0-.26-2.6,2.79,2.79,0,0,1,.78-2.6l3.64-4.16-4.16-4.68a2.81,2.81,0,0,0,1.3-1,4.09,4.09,0,0,1,.78-1v-4.16a3.14,3.14,0,0,0-2.08-2.08v-4.68a24,24,0,0,1,.52-4.68l1-2.08-1.56-2.08v-6.76c1.38-.69,2.08-1.56,2.08-2.6a3.51,3.51,0,0,1,1-2.6h2.6a1.5,1.5,0,0,1,.78,1.82c-.18.87.26,1.65,1.3,2.34l3.12-3.12v-4.16a.92.92,0,0,0-1-1l-1.56,1.56a14.73,14.73,0,0,1-7.8,0c0-.34-.09-.52-.26-.52s-.26-.17-.26-.52V24L528,21.92V20.36c-1,1-1.56.87-1.56-.52a3,3,0,0,1-.52-2.08v-14a2.13,2.13,0,0,1,1.56-.52h23.92L553,6.84a.65.65,0,0,0,1,0,.46.46,0,0,0,.52-.52V4.24a9.15,9.15,0,0,1,2.6-1.3,24.65,24.65,0,0,1,5.72.26c.34.35.52,1.39.52,3.12a3,3,0,0,0,2.08,1,3.06,3.06,0,0,0,2.6-1.56c0-1.38.34-2.25,1-2.6q10.39,0,17.42-.26T598,2.68q4.41,0,7,.26a20.77,20.77,0,0,1,4.16.78c.34,0,.52.35.52,1v54.6c-1.39,1.74-2.08,2.78-2.08,3.12s.69,1.39,2.08,3.12v51a4.09,4.09,0,0,0-.78,1,2.81,2.81,0,0,1-1.3,1v2.08l-2.08,2.6a1.45,1.45,0,0,0,2.08,1,1.46,1.46,0,0,1,2.08,1l-1.56,2.08a5.46,5.46,0,0,0,0,4.68l1.56,2.08a5.17,5.17,0,0,1-1.56,1.82,18.94,18.94,0,0,0-2.08,1.82h-4.16q-1.56,1.05,0,1.56a4.13,4.13,0,0,0,1.82.52,2.88,2.88,0,0,1,1.82,1,2.82,2.82,0,0,0-1.3,1,4.22,4.22,0,0,1-.78,1c.34.7,1.38,1,3.12,1l2.6-2.08a7.81,7.81,0,0,0,1,3.12l-3.12,3.13-4.16,1a8.13,8.13,0,0,1,1.3,1.56,2.7,2.7,0,0,0,1.3,1v4.16l-2.08,2.6,3.12,3.12h2.08c1,.35,1.21.87.52,1.56l-3.64,4.16,2.08,2.08v15.61l1.56,1.55a10.31,10.31,0,0,1,.52,7.28l-1.56,1.56a6.5,6.5,0,0,0-.78,3.9,28.26,28.26,0,0,1,.26,3.9v22.89a26.55,26.55,0,0,0,.26,3.89,6.62,6.62,0,0,1-.78,3.9l-1.56,1.56,2.08,2.6v30.68L605.49,271v2.08c-1,1-1.74,1.56-2.08,1.56H516.05a3.14,3.14,0,0,0-2.08-2.08,2.2,2.2,0,0,1-1-.26,2.38,2.38,0,0,0-1-.26l-2.6,2.6H491.61l-2.08-2.6h-6.76l-2.08,2.6a8,8,0,0,1-3.12-1A7.7,7.7,0,0,0,475,272c-.35,0-1.39.7-3.12,2.08l-2.08-1.56h-4.16L463,270h-2.08a1.64,1.64,0,0,1-1-1.56,4.74,4.74,0,0,0-.52-2.08l-4.16-4.16V258a35.87,35.87,0,0,0-4.16-4.42q-2.08-1.82-4.16-3.9a4.54,4.54,0,0,1-.52-2.08,3,3,0,0,0-1-2.08l-7.8-7.28v-1.56a2.24,2.24,0,0,1,1-1.82,2.25,2.25,0,0,0,1-1.82c.69-1.73,1.21-2.6,1.56-2.6h2.08a9.12,9.12,0,0,0,1-2.6,5.46,5.46,0,0,0-1-2.08,3.18,3.18,0,0,1-2.86,2.08,3.25,3.25,0,0,0-2.86,1.56v2.08a3.16,3.16,0,0,1-4.16,0v-2.6l-4.16-3.64a3.69,3.69,0,0,0-.26-1.56,3.48,3.48,0,0,1-.26-1.56l-4.16-3.64v-2.6l-6.76-6.76V207a11.81,11.81,0,0,1-2.6-4.68l-6.24-6.24V194l-6.24-6.24a3.86,3.86,0,0,1-.52-3.38,5.72,5.72,0,0,0,0-3.38l2.08-2.6a.46.46,0,0,1-.52-.52.47.47,0,0,0-.52-.52h-2.08a2.82,2.82,0,0,0-1.3,1,.84.84,0,0,1-.78.52l-3.12-2.6c0-1.73-.35-2.77-1-3.12l-1.56-2.08a3.6,3.6,0,0,0,.26-2.34c-.18-.86.26-1.64,1.3-2.34a3.54,3.54,0,0,0,1.56-.26,1.89,1.89,0,0,1,1.56.26c1,0,1.56-.34,1.56-1,.34-.34.17-.86-.52-1.56a2.7,2.7,0,0,1-1.3-1,4.62,4.62,0,0,0-.78-1,2.17,2.17,0,0,0-2.34.26,6.84,6.84,0,0,1-1.82,1.3c-.7.7-1.91.52-3.64-.52l2.08-2.08v-8.32l5.72-6.23h4.16c1-.7,1.47-1.48,1.3-2.35a14.07,14.07,0,0,1-.26-2.86l-1-1a2.35,2.35,0,0,0-1.3,1.3c-.18.52-.61.61-1.3.26s-1-.78-.78-1.3a5.83,5.83,0,0,0,.26-1.82c.34-.69,1-1,2.08-.78a1.69,1.69,0,0,0,2.08-1.3l-3.12-3.12h-1v-3.12c0-.69-.52-1-1.56-1A5.39,5.39,0,0,0,391.25,129.56ZM234.73,165.44l1,1c.69-.69.86-1.21.52-1.56l-.52-1A1.66,1.66,0,0,0,234.73,165.44Zm2.6-56.68a1.66,1.66,0,0,0,1.56-1l-.52-.52c-.35-.34-.87-.17-1.56.52A1.55,1.55,0,0,1,237.33,108.76Zm.52-44.2c0,.35-.09.52-.26.52s-.26.18-.26.52c-.35.35-.18.87.52,1.56l1-1A1.68,1.68,0,0,0,237.85,64.56Zm1.56,29.64c0,1,.34,1.56,1,1.56h15.08l1-1a.92.92,0,0,0-1-1,19.35,19.35,0,0,0-5.46-.26c-1.91.18-3.73.26-5.46.26l-2.08-2.6ZM242.53,129a.92.92,0,0,0-1,1,.46.46,0,0,0,.52.52c.34.35.86.18,1.56-.52Zm15.6-77c-.35-.34-.87-.17-1.56.52a1.47,1.47,0,0,0,1,.52c.69.7,1,.52,1-.52A.47.47,0,0,0,258.13,52.08Zm.52,44.72q2.07,2.61,4.68,0Q260.72,94.73,258.65,96.8Zm.52-23.92c.34,0,.52.09.52.26s.17.26.52.26c.69-.69.86-1,.52-1l-.52-1A1.66,1.66,0,0,0,259.17,72.88Zm8.32,96.2c-.35,0-.52-.08-.52-.26s-.18-.26-.52-.26c-.7.7-.87,1.22-.52,1.56l.52.52A1.66,1.66,0,0,0,267.49,169.08Zm7.8-131c0,.35-.09.52-.26.52s-.26.18-.26.52c-.35.35,0,.87,1,1.56H280c0-.34.08-.52.26-.52s.26-.17.26-.52c.34-.34.17-.86-.52-1.56Zm3.12,74.36v-.52q-2.61-2.59-3.64,0v.52a2.11,2.11,0,0,0,3.64,0Zm2.08,8.32-.52-.52c-1-.34-1.74-.34-2.08,0a1.51,1.51,0,0,0-1,.52v.52a2.11,2.11,0,0,0,3.64,0Zm3.12-28.08a1,1,0,0,0,.26.78c.17.18.26.09.26-.26a.92.92,0,0,0,1-1l-1-1C283.43,91.78,283.26,92.3,283.61,92.64Zm7.8-87.36a8.78,8.78,0,0,1,2.6.52v.52c.34,0,.86.35,1.56,1V6.84a1.55,1.55,0,0,0-.52-1c.69,0,.95-.08.78-.26a1.1,1.1,0,0,0-.78-.26h-.52c-.35-1.38-.87-2.08-1.56-2.08a1.89,1.89,0,0,0-1.56-.26,3.54,3.54,0,0,1-1.56.26C289.5,3.9,290,4.59,291.41,5.28Zm3.64.52a.46.46,0,0,1-.52-.52.46.46,0,0,0-.52.52Zm0,134.16-.52.52a12.88,12.88,0,0,0,0,5.2,1.48,1.48,0,0,0,1,.53,1.09,1.09,0,0,1,.78.25c.17.18.6.09,1.3-.25,1,0,1.21-.35.52-1.05a2.94,2.94,0,0,0-1-1.3c-.35-.17-.52-.6-.52-1.3C295.91,140.83,295.39,140,295.05,140Zm8.84-55.64a1.66,1.66,0,0,0,1.56-1,1.55,1.55,0,0,0-1-.52c-.35-.34-.87-.17-1.56.52Zm20.8-44.72c.69-.69.52-1-.52-1a1.51,1.51,0,0,0-1,.52,1.64,1.64,0,0,0,1,1.56A1.51,1.51,0,0,0,324.69,39.6Zm9.36-4.68v1a1.68,1.68,0,0,0,.52,2.08,1.66,1.66,0,0,0,1.56-1l2.08-2.08A3.16,3.16,0,0,0,334.05,34.92Zm1.56,10.92-.52-1c-1,.35-1.22.87-.52,1.56l.52.52C336.13,46.88,336.3,46.54,335.61,45.84Zm6.24,34.32-1,1c0,.35.34.7,1,1H346c.34,0,.52-.08.52-.26s.17-.26.52-.26c0-.34-.35-.86-1-1.56ZM345,31.8c-1-1-1.56-.86-1.56.52a3,3,0,0,0-.52,2.08,1.64,1.64,0,0,0,1,1.56l1-1a9.72,9.72,0,0,1,.52-3.12H346l1-1.56a1.51,1.51,0,0,0-1,.52,1.5,1.5,0,0,1,.52-1c-.35,0-.87.35-1.56,1S344.27,31.8,345,31.8Zm0,0h.52a1.5,1.5,0,0,1,.52-1ZM347.57,75l.52,1a1.66,1.66,0,0,0,1-1.56l-1-1C347.39,74.1,347.22,74.62,347.57,75ZM358,98.88q-1.56-2.59-4.16,0Q356.41,101.49,358,98.88Zm0-14.56a.66.66,0,0,0,0-1,.47.47,0,0,0-.52-.52,1.66,1.66,0,0,0-1.56,1v1a1.64,1.64,0,0,0,1,1.56C357.62,87.1,358,86.4,358,84.32Zm2.6-39.52c.34.35.86.18,1.56-.52a3,3,0,0,0,.52-2.08c0-1-.35-1.56-1-1.56l-.52.52-.52.52a7.23,7.23,0,0,0-.52,3.12,2.13,2.13,0,0,0-1.56.52,2.08,2.08,0,0,0,.52,1.56,1.5,1.5,0,0,0,1-.52v-1l.52.52Zm10.92,42.64V96.8a1.5,1.5,0,0,1-1,.52h-.52q-2.08-2.07-3.64-1.56a1.51,1.51,0,0,0-1,.52l-1.56,1.56q-5.2,0-2.08,4.68a1.5,1.5,0,0,0,1-.52,2.1,2.1,0,0,1,2.08,1c0,.35-.35.87-1,1.56a2.82,2.82,0,0,0-1.3,1,4.22,4.22,0,0,1-.78,1h-1.56c-1,0-1.56.35-1.56,1l1,1a8.78,8.78,0,0,1,2.08.26,2.89,2.89,0,0,0,2.08-.26l2.6-2.08a4.23,4.23,0,0,0,3.12-1V101a2.49,2.49,0,0,1,2.34-.78,5.45,5.45,0,0,0,2.86-.26,19.61,19.61,0,0,0,5.72-6.24,9.35,9.35,0,0,0-1-2.6h-2.08L373.57,88v-1c0-1.38-.52-2.08-1.56-2.08h-6.24l-1,1a2.35,2.35,0,0,0,2.86,1A5.34,5.34,0,0,1,371.49,87.44ZM360.57,44.8h-.52v.52Zm3.64,28.08c.69-.69.52-1.21-.52-1.56a1.5,1.5,0,0,0-.52,1c-.35,0-.18.35.52,1Zm.52-16.12-1-1c-.7.7-.87,1.22-.52,1.56l.52,1A1.66,1.66,0,0,0,364.73,56.76Zm2.6-21.32c.34,0,.52.09.52.26s.17.26.52.26c.69-.69.86-1.21.52-1.56l-.52-.52A1.66,1.66,0,0,0,367.33,35.44Zm2.08,36.92v1a1.68,1.68,0,0,0,.52,2.08,2.12,2.12,0,0,0,1.56-.52l2.08-2.6C371.83,70.63,370.45,70.63,369.41,72.36Zm0,6.76v1a1.68,1.68,0,0,0,.52,2.08,1.66,1.66,0,0,0,1.56-1,4.22,4.22,0,0,1,1-.78,2.82,2.82,0,0,0,1-1.3C371.83,77.39,370.45,77.39,369.41,79.12Zm6.24,29.12a1.68,1.68,0,0,0-1-1.56l-.52.52c-.35.35-.18.87.52,1.56.34,0,.52-.08.52-.26S375.3,108.24,375.65,108.24Zm0,37.44v-2.6l3.64-3.12a5.59,5.59,0,0,0,1.82-.26,2.42,2.42,0,0,1,1.82.26c1,0,1.56.35,1.56,1a6.52,6.52,0,0,1,.26,3.12,21.73,21.73,0,0,0-.26,3.64c1.38.35,2.25.18,2.6-.52v-2.08l.52-.52a6.93,6.93,0,0,1,3.12,3.12l-2.6,3.12h-2.08a2.26,2.26,0,0,0-1.3,3.12,2.26,2.26,0,0,1-1.3,3.12,3.5,3.5,0,0,1-1-2.6c0-1-.7-1.9-2.08-2.6v-2.6ZM377.21,31.8c-.35,0-.52.09-.52.26s-.18.26-.52.26a1.64,1.64,0,0,0,1,1.56l.52-.52C378.07,33,377.9,32.5,377.21,31.8Zm.52,27.56a1.55,1.55,0,0,0-.52-1c-.35,0-.52.09-.52.26s-.18.26-.52.26a1.64,1.64,0,0,0,1,1.56A1.5,1.5,0,0,1,377.73,59.36Zm0-16.12.52,1h.52a8.84,8.84,0,0,0,7.28,0c.34,0,.86-.34,1.56-1-1.74-.34-3.38-.6-4.94-.78A10.27,10.27,0,0,0,377.73,43.24Zm.52,64.48a16.67,16.67,0,0,1-.26,2.6,3.56,3.56,0,0,0,1.3,3.12,2.06,2.06,0,0,1,2.6-.26,1.84,1.84,0,0,0,2.6-.78l-2.08-2.6v-2.08A3.16,3.16,0,0,0,378.25,107.72Zm4.16-5.2v-1c-.7-1-1.22-1.38-1.56-1l-.52.52v1c0,2.08.52,2.78,1.56,2.08C382.58,103.39,382.75,102.87,382.41,102.52Zm8.84,27V125.4a9.12,9.12,0,0,1,2.6-1c.34,0,1.21.7,2.6,2.08h4.16c.34,0,.86-.34,1.56-1l-3.12-3.12H397l-4.68-4.68a4,4,0,0,1-2.08,1.82,10.75,10.75,0,0,0-2.08.78l-3.64,3.12A77.2,77.2,0,0,1,391.25,129.56Zm-2.08-44.2v-.52c-1-1-1.56-.86-1.56.52-.7.7-.7,1,0,1h1A1.5,1.5,0,0,1,389.17,85.36Zm-2.08-12.48,1,.52c.69-.69.86-1,.52-1l-.52-1A1.66,1.66,0,0,0,387.09,72.88Zm3.12,9.88-.52.52-.52.52c-.7.7-.7,1,0,1Zm2.08-15.6L395.41,64c-1-1-1.39-1.56-1-1.56a8.18,8.18,0,0,1-2.08-.26,3,3,0,0,0-2.08.26c-1.74,1-1.91,2.26-.52,3.64.34.7.69,1,1,.78A1.89,1.89,0,0,1,392.29,67.16Zm-3.12-11.44a51,51,0,0,1,5.46.26,15.77,15.77,0,0,0,4.94-.26,1.51,1.51,0,0,0,.52-1l-.52-.52a22.25,22.25,0,0,0-5.2-.52c-1.39-1.38-2.26-2.08-2.6-2.08a9.12,9.12,0,0,0-2.6,1Zm0,52a3.16,3.16,0,0,0,4.16,0l-.52-.52c0-.34-.09-.52-.26-.52s-.26-.17-.26-.52a2.7,2.7,0,0,1-1.3-1c-.18-.34-.61-.34-1.3,0A4.11,4.11,0,0,0,389.17,107.72Zm1-23.4,1-1h-.52c.34,0,0,.52-1,1.56A.46.46,0,0,1,390.21,84.32ZM398,133.2c0,1-.18,1.56-.52,1.56a3.77,3.77,0,0,1-2.86.78,12.37,12.37,0,0,0-2.34-.26c-.35,0-.52-.34-.52-1a.46.46,0,0,0,.52-.52.46.46,0,0,1,.52-.52Zm-2.08-29.64c.34,0,.86.35,1.56,1a3.05,3.05,0,0,1,2.08.52.86.86,0,0,1,.78.52.82.82,0,0,0,.78.52c0,.35.17.44.52.26a.84.84,0,0,0,.52-.78,3,3,0,0,0,.26-2.08,8.18,8.18,0,0,1-.26-2.08l-1.56-1.56a3.54,3.54,0,0,0-2.6,1Zm3.64-60.32c-.35-.34-.87-.17-1.56.52l.52.52c.34.35.86.18,1.56-.52Zm0,29.64c.34-.34.17-.86-.52-1.56a1.5,1.5,0,0,0-.52,1c-.35,0-.18.35.52,1Zm6.24-7.8q2.07-2.07,0-4.68h-4.68c-1.39,0-1.56.52-.52,1.56l.52.52h2.6Zm-3.64,53.56v1a2.08,2.08,0,0,0,1,2.08l1.56-.52,2.08-2.6a5.46,5.46,0,0,0-2.08-1A9.12,9.12,0,0,0,402.17,118.64Zm4.68,54.08h1l.52-.51c.34-.35.17-.87-.52-1.57h-1a2.1,2.1,0,0,0-2.08,1C404.77,172.38,405.46,172.72,406.85,172.72Zm2.08-59.28a21,21,0,0,0-.78-2.08,10.64,10.64,0,0,0-2.86-2.08,3.71,3.71,0,0,0,.52,4.16Zm-.52,33.28a1.55,1.55,0,0,1,1,.52c-.35,0-.52-.08-.52-.26s-.18-.26-.52-.26l.52.52q1,1,1.56,1l-1-1a1.1,1.1,0,0,1,.78.26,1,1,0,0,0,.78.26l-1-1.55h-1c.34-.35.17-.87-.52-1.57s-1.22-.52-1.56.52l.52.52C407.37,146,407.71,146.38,408.41,146.72Zm.52-33.28a2.72,2.72,0,0,0,1,2.34,21,21,0,0,1,2.08,1.82c1.73,0,2.77-.34,3.12-1a14.16,14.16,0,0,1-2.6-3.12Zm1,64-.52.52c-.35.35-.18.87.52,1.56a1.51,1.51,0,0,1,1-.52A1.68,1.68,0,0,0,410,177.4Zm5.72-33.28v-1c0-.34-.35-.52-1-.52-.7-.69-1-.52-1,.52v1a1.7,1.7,0,0,0,.52,2.09C415.17,146.21,415.69,145.51,415.69,144.12Zm-2.08-60.84c0,.7.17,1,.52,1a6.7,6.7,0,0,0,5.2,0,1.51,1.51,0,0,0,.52-1V79.12l-1-1Zm2.08,67.6h1c.34,0,.52-.34.52-1,.69-.69.52-1-.52-1h-1a1.71,1.71,0,0,0-2.08.52C413.61,150.36,414.3,150.88,415.69,150.88Zm2.08,26.52h-1c-.7.7-.87,1.22-.52,1.56a.46.46,0,0,0,.52.52h1c1.38,0,2.08-.52,2.08-1.56A1.71,1.71,0,0,0,417.77,177.4Zm.52,13.52-.52.52a1.64,1.64,0,0,0,1.56,1c0-.34.08-.52.26-.52s.26-.17.26-.52A2.16,2.16,0,0,0,418.29,190.92ZM424.53,154q-2.61-2.07-4.68,0Q421.92,156.61,424.53,154Zm6.24-11.44c-.35,0-.52-.08-.52-.26s-.18-.26-.52-.26c-.7.7-.87,1.22-.52,1.56l.52.52A1.66,1.66,0,0,0,430.77,142.56Zm11.44-18.2c0-1.38-.52-2.08-1.56-2.08a1.89,1.89,0,0,0-1.56-.26,3.54,3.54,0,0,1-1.56.26,1.71,1.71,0,0,0-.52-2.08,13.25,13.25,0,0,0-5.2,0l-.52.52c1,1,1.38,1.56,1,1.56h5.2a2,2,0,0,0,1.56,2.08Zm-4.68,58.76a1.68,1.68,0,0,0-1-1.56,1.5,1.5,0,0,0-.52,1c-.7.7-.52,1,.52,1C436.49,184,436.83,183.82,437.53,183.12Zm.52,34.32v1l.52.52a3.33,3.33,0,0,0,3.64-1.56,1.5,1.5,0,0,0,1-.52l1-1h-.52c-.7,0-1,.18-1,.52a2.12,2.12,0,0,1,.52-1.56l-1,1-.52,1h-2.6c-.35,0-.52.09-.52.26S438.39,217.44,438.05,217.44Zm15.08-32.23L450,182.08a3.05,3.05,0,0,0-2.08-.52l-2.6,2.6a8.18,8.18,0,0,1-2.08-.26,3,3,0,0,0-2.08.26.92.92,0,0,0-1,1.05.91.91,0,0,0,1,1h2.08l2.08,2.08a2.86,2.86,0,0,0,1.3-1,4,4,0,0,1,.78-1l2.6,2.08Zm-10.92-60.85c-1,1-.87,1.56.52,1.56a3,3,0,0,0,2.08.52,1.66,1.66,0,0,0,1.56-1,.46.46,0,0,1-.52-.52l-.52-.52Zm0,92.56h-.52l.52.52a1.5,1.5,0,0,1,.52-1A.46.46,0,0,0,442.21,216.92Zm8.32-49.4V167a2.11,2.11,0,0,0-3.64,0v.52a2.11,2.11,0,0,0,3.64,0Zm4.68-35.36-1-1h-1V128c0-.34-.09-.52-.26-.52s-.26-.17-.26-.52h-.52c-.7,0-1,.18-1,.52q-.53,3.12,1.56,4.16a.46.46,0,0,0,.52.52.46.46,0,0,0,.52.52h1l-.52-.52Zm-2.6-.52a2.16,2.16,0,0,1,1.56.52l-1-1A.46.46,0,0,0,452.61,131.64Zm.52,59.8q2.6,2.61,4.16,0Q455.73,188.85,453.13,191.44Zm2.08-41.6v-.52a1.47,1.47,0,0,1-1-.52l-.52.52c-.35.35-.18.87.52,1.56Zm0,11.45a1.68,1.68,0,0,0-1-1.57l-.52.52c-.35.35-.18.87.52,1.56A1.49,1.49,0,0,1,455.21,161.29Zm6.24-22.89a1.1,1.1,0,0,0-.26-.78c-.18-.17-.26-.08-.26.26a.92.92,0,0,0-1,1l1,1C461.62,139.27,461.79,138.75,461.45,138.4Zm2.6,20.28v-.52a1.47,1.47,0,0,1-1-.52l-.52.52c-.35.35-.18.87.52,1.56Zm15.6,53-3.12-3.64h-4.16a1.38,1.38,0,0,0-1.56,1.56,3,3,0,0,0,2.08,1h1a3.15,3.15,0,0,0,1.3.78,34.63,34.63,0,0,0,4.42.78Zm-3.12,1h3.12v1l3.12,3.12a31.43,31.43,0,0,1,6.76.52l2.08,1.56,2.6-2.08h1.56l1.56-1.56c0-1.38.34-2.25,1-2.6a3,3,0,0,0,1-2.08c.69-1,.34-1.9-1-2.6h-4.68a5.84,5.84,0,0,1-2.08,2.08c-1,.7-4.34,1.39-9.88,2.08a45.75,45.75,0,0,0,8.84.52h-14Zm2.6-50.44c-.35-.34-.87-.17-1.56.52a1.55,1.55,0,0,1,.52,1,1.66,1.66,0,0,0,1.56-1Zm-.52,23.92c-.35,0-.52.09-.52.26s-.18.26-.52.26c0,1,.34,1.56,1,1.56h15.08c.69,0,1-.17,1-.52v-.51l-2.6-3.13h-2.6l-2.6,2.08Zm14.56,40c-.35.34-.18.86.52,1.55a.46.46,0,0,0,.52-.52c.34,0,.69-.52,1-1.56A3,3,0,0,0,493.17,226.29Zm2.08-.53c.69,0,1.38-.52,2.08-1.55a1.52,1.52,0,0,0,1-.53l1-1.56h-.52l-1,1a2.12,2.12,0,0,1,.52-1.56.46.46,0,0,1-.52.52.46.46,0,0,0-.52.52l-.52,1A2,2,0,0,0,495.25,225.76Zm2.08-2.08h-.52l.52.53Zm22.36-3.12.52,1a1.66,1.66,0,0,0,1-1.56l-1-.52C519.86,219.52,519.69,219.87,519.69,220.56Zm4.16,0a2.6,2.6,0,0,0,4.16,0A2.61,2.61,0,0,0,523.85,220.56Zm6.76-202.28a3.3,3.3,0,0,0-2.6,2.08A2.46,2.46,0,0,0,530.61,18.28Zm-1.56,27-1,.52a1.64,1.64,0,0,0,1.56,1c.69-.69.86-1,.52-1C530.09,44.8,529.74,44.63,529.05,45.32Zm-1,92v1q1.56,2.61,4.68,0a2.78,2.78,0,0,1-.78-2.6,1.7,1.7,0,0,0-1.3-2.08v1Q530.61,137.88,528,137.36Zm1.56-37.44c-1,.7-1.39,1.22-1,1.56,0,.35.34.52,1,.52a27.44,27.44,0,0,0,6.24.52c.69-.69,1-1.21,1-1.56l-1-1Zm3.64-81.64c1.38-1,1.56-2.42.52-4.16a10.2,10.2,0,0,0-2.34,2.08,16.81,16.81,0,0,0-.78,2.08Zm-2.6,42.64a2.08,2.08,0,0,0,.52,1.56c.34,0,.52-.08.52-.26s.17-.26.52-.26l.52-.52v-.52l1-2.6-1,1-.52,1A2.13,2.13,0,0,0,530.61,60.92Zm7.28,52.52a1.66,1.66,0,0,0,1-1.56c0-.34-.35-.52-1-.52a28.16,28.16,0,0,0-6.24-.52,1.66,1.66,0,0,0-1,1.56l1,1Zm9.36,32.77H532.17c-1,0-1.56.34-1.56,1a1.5,1.5,0,0,0,.52,1,.45.45,0,0,0,.52.51h8.84l1.56,1.56h.52q2.59-2.07,3.12-2.07a7.59,7.59,0,0,1,2.6,1.55q2.6,1.56,4.16,0l2.08-2.6a13.17,13.17,0,0,1-2.86-2.6,10.54,10.54,0,0,0-3.38-2.6v-.52a4.65,4.65,0,0,0-.26,2.6A2.19,2.19,0,0,1,547.25,146.21ZM531.65,257a.92.92,0,0,0-1,1,.46.46,0,0,0,.52.52c.34.35.86.18,1.56-.52Zm1-196.56h-.52l.52.52Zm1,0,1-1.56h-.52c-.35,0-.87.7-1.56,2.08A1.5,1.5,0,0,0,533.73,60.4Zm-.52,143.52-.52,1c.69.7,1.21.87,1.56.52l.52-.52A1.68,1.68,0,0,0,533.21,203.92Zm5.2-124.28a1.05,1.05,0,0,0,.78-.26c.17-.17.08-.26-.26-.26,0-1-.35-1.21-1-.52l-1,.52C537.54,79.82,538.06,80,538.41,79.64Zm1,59.28-2.6,2.08a.86.86,0,0,1,.78.52.82.82,0,0,0,.78.52,38.76,38.76,0,0,1,4.68.26,9.37,9.37,0,0,0,4.68-.78c0-.34-.09-.52-.26-.52s-.26-.17-.26-.52a.46.46,0,0,1-.52-.52,3,3,0,0,0-2.08-.26,8.29,8.29,0,0,1-2.08.26,3.78,3.78,0,0,1-1.56-1.3,4,4,0,0,0-1.56-1.3Zm-1.56,36.4a.46.46,0,0,0-.52.52c-.35.35-.18.87.52,1.56l1-1v-.52A1.47,1.47,0,0,1,537.89,175.32Zm.52-38c0,.35.08.52.26.52s.26-.17.26-.52c.34-.34.17-.86-.52-1.56-.35-.34-.7-.17-1,.52v.52C537.37,137.19,537.71,137.36,538.41,137.36Zm2.08,28.6,1-.52a1.68,1.68,0,0,0-1.56-1l-.52.52A.91.91,0,0,0,540.49,166Zm4.16,51h-4.16a1.66,1.66,0,0,0-1,1.56,1.47,1.47,0,0,0,1,.52,8.78,8.78,0,0,1,2.08.26,2.89,2.89,0,0,0,2.08-.26.46.46,0,0,0,.52-.52C545.86,217.79,545.69,217.27,544.65,216.92Zm1-175.24v-1a1.71,1.71,0,0,0-.52-2.08,2.13,2.13,0,0,0-1.56.52l-2.08,2.6A2.6,2.6,0,0,0,545.69,41.68ZM541.53,96.8l2.08,2.08c.34,1,.86,1.22,1.56.52,1.38,0,1.56-.52.52-1.56a3,3,0,0,1,1-2.08,16.27,16.27,0,0,0,4.16-.26,7.41,7.41,0,0,0,1.56-1.3l-3.12-3.12h-2.6Zm1.56,25,.52-.52a1.68,1.68,0,0,0-1.56-1c0,.35-.09.52-.26.52s-.26.18-.26.52A2.08,2.08,0,0,0,543.09,121.76Zm0,65c-.7-.69-1.22-.52-1.56.53l.52.51q.51.52,1.56-.51Zm6.24-9.36a18.36,18.36,0,0,1,5.2-5.19c-.35,0-.52-.35-.52-1.05a.47.47,0,0,0-.52-.52h-4.16a3,3,0,0,0-1,2.08,4.22,4.22,0,0,1-1.56,2.6h-2.08l-.52.52c-1,1-.87,1.56.52,1.56Zm-5.2-67.08a1,1,0,0,0,.26.78c.17.18.26.09.26-.26a.92.92,0,0,0,1-1l-1-1C544,109.46,543.78,110,544.13,110.32Zm1.56,98.8-1-1c-.7.7-.87,1.22-.52,1.56a1,1,0,0,0,.26.78c.17.18.26.09.26-.26A.92.92,0,0,0,545.69,209.12Zm1-137.8q-2.61,2.61,0,4.68Q548.8,73.93,546.73,71.32Zm5.72,39.52a1.51,1.51,0,0,0-1,.52.92.92,0,0,0-1,1l1,1h1c1.38,0,2.08-.52,2.08-1.56A2.1,2.1,0,0,0,552.45,110.84Zm-.52,73.32a1.65,1.65,0,0,0-1.56,1.05l.52.51q.51.53,1.56-.51c0-.35-.09-.53-.26-.53S551.93,184.51,551.93,184.16Zm0,33.8-.52-1a1.66,1.66,0,0,0-1,1.56l1,.52C552.45,219,552.62,218.66,551.93,218Zm7.28-63.44a1.47,1.47,0,0,1-.52-1c-.35,0-.52-.08-.52-.26s-.18-.26-.52-.26c-1-1-1.74-1.56-2.08-1.56-.7.35-1,.78-.78,1.31a2.39,2.39,0,0,1-.26,1.81l-2.08,1.56a7.25,7.25,0,0,0,.52,3.13,34.75,34.75,0,0,0,3.9.51,4.94,4.94,0,0,0,2.34-1Zm-3.64,25,5.2-5.72c-.35-1-1.39-1.21-3.12-.52-.7.7-1.56,1.48-2.6,2.34a13.4,13.4,0,0,0-2.6,2.86l1,1Zm2.08-108.16c1-.69,1.38-1.21,1-1.56l-.52-.52h-4.68a3.16,3.16,0,0,0,0,4.16,4.22,4.22,0,0,1,1-.78,2.82,2.82,0,0,0,1-1.3Zm1,72.28v-1a3,3,0,0,0-2.08-1,1.66,1.66,0,0,0-1.56,1v1a2.11,2.11,0,0,0,3.64,0Zm.52-49.92a1.71,1.71,0,0,0-2.08.52c0,.7.17,1,.52,1h1A4,4,0,0,1,559.21,93.68ZM560.77,167l-.52-.52a1.3,1.3,0,0,0-2.08,0,1.51,1.51,0,0,0-1,.52v.52a2.11,2.11,0,0,0,3.64,0Zm-1.56-73.32a1.66,1.66,0,0,0,1.56-1,2.13,2.13,0,0,0,.52-1.56c0-1-.35-1.56-1-1.56,0-.34-.18-.34-.52,0a1.5,1.5,0,0,0-.52,1c-.35.7-.44,1.22-.26,1.56A3.69,3.69,0,0,1,559.21,93.68Zm2.08-10.4a3.16,3.16,0,0,0,4.16,0l-1-1a2.32,2.32,0,0,1-1.3-1.3c-.18-.52-.61-.6-1.3-.26A4.11,4.11,0,0,0,561.29,83.28Zm6.24,59.8a.46.46,0,0,1-.52-.52l-.52-.52c-.7,0-1,.18-1,.52V142c.34-1,.17-1.56-.52-1.56a2.16,2.16,0,0,0-1.56-.52,3,3,0,0,0-2.08.52,1.38,1.38,0,0,0,1.56,1.56,8.78,8.78,0,0,1,2.6.52l.52.52,1,1a1.55,1.55,0,0,0-.52-1Zm-4.16,34.32c-.35-.34-.87-.17-1.56.52s-.52,1.22.52,1.56l.52-.52v-.52A1.51,1.51,0,0,0,563.37,177.4ZM565.45,75v-.52a3,3,0,0,0-2.08-1,1.66,1.66,0,0,0-1.56,1V75a2.11,2.11,0,0,0,3.64,0ZM563.37,177.4a3,3,0,0,0,2.08-.52V174.8c1-1,.86-1.56-.52-1.56q-1.56,0-1.56,1Zm2.08-17.16c-.35,0-.52-.08-.52-.26s-.18-.26-.52-.26c-.7.7-.87,1.22-.52,1.57l.52.51A1.66,1.66,0,0,0,565.45,160.24Zm0-17.68c.34,0,.52.09.52.26s.17.26.52.26A1.55,1.55,0,0,0,565.45,142.56ZM567,38l-1,1a1.64,1.64,0,0,0,1,1.56,1.51,1.51,0,0,0,.52-1C567.87,39.26,567.7,38.74,567,38Zm7.28,70.2-1-1.56h-1v-3.12a.47.47,0,0,0-.52-.52l-.52-.52-1,.52q-.52,3.12,1.56,4.16l.52.52,1.56,1-.52-.52Zm-2.6,38,.52-1.05c-.7-.69-1.22-.86-1.56-.52l-.52.52A1.65,1.65,0,0,0,571.69,146.21Zm.52-64h1c.34,0,.52-.08.52-.26s.17-.26.52-.26a1.68,1.68,0,0,0-1-1.56h-1c-1,0-1.56.35-1.56,1C570,81.9,570.47,82.24,572.21,82.24Zm1,26c0-.34-.35-.86-1-1.56l-.52.52Zm1,47.84-1-1c-.7.7-.87,1.22-.52,1.56l.52,1A1.66,1.66,0,0,0,574.29,156.08Zm1.56-148.2c-.7-.69-1-.52-1,.52-.35,0-.18.35.52,1a1.66,1.66,0,0,0,1.56-1A1.55,1.55,0,0,0,575.85,7.88Zm-1,155.48c.34,0,.52.09.52.26s.17.26.52.26c.69-.69.86-1,.52-1l-.52-1A1.66,1.66,0,0,0,574.81,163.36Zm3.64-30.68.52-.52a1.68,1.68,0,0,0-1.56-1l-.52,1C577.58,132.86,578.1,133,578.45,132.68Zm0,18.72c-.35-.34-.87-.17-1.56.52l.52.52c.34.35.86.18,1.56-.52Zm3.64,2.08-1,.52a1.64,1.64,0,0,0,1.56,1l.52-1C583.13,153,582.78,152.79,582.09,153.48Zm1-105a1.68,1.68,0,0,0-1-1.56,1.5,1.5,0,0,0-.52,1c-.35.35-.18.87.52,1.56Zm.52,134.68.52.52a.92.92,0,0,0,1-1l-.52-1A1.66,1.66,0,0,0,583.65,183.12Zm6.24-20.28a1.64,1.64,0,0,0,1.56,1l.52-1-1-.52Zm1.56,9.88.52-1c-.7-.69-1-.86-1-.52l-1,.52A1.64,1.64,0,0,0,591.45,172.72Zm.52,49.4-1-.52c-.7.7-.87,1.22-.52,1.56l.52.52A1.66,1.66,0,0,0,592,222.12Zm2.6-35.88h5.2l2.6-2.08a.66.66,0,0,1,1,0c1,0,1.56-.34,1.56-1,.69-.69.52-1-.52-1h-4.68l-1.56,1.56a3.63,3.63,0,0,0-1.56.26,3.54,3.54,0,0,1-1.56.26,3,3,0,0,0-1,2.08,2.13,2.13,0,0,0-1.56.52c-.35.35-.18.87.52,1.56l.52-.52c.34,0,.52-.34.52-1l.52.53Zm0,0h-.52v.52A.46.46,0,0,0,594.57,186.24Zm2.08-101.4h1a1.51,1.51,0,0,0,.52-1c.34-.34.17-.86-.52-1.56h-1a2.1,2.1,0,0,0-2.08,1C594.57,84.32,595.26,84.84,596.65,84.84ZM596.13,167q-1.05-.51-1.56,0a1.47,1.47,0,0,0,.52,1v.52h1.56C596.65,167.52,596.47,167,596.13,167Zm2.6-44.72,2.08,1-1-1h-1a3.05,3.05,0,0,0-.52-2.08,2.13,2.13,0,0,0-1.56.52c0,.35.08.52.26.52s.26.18.26.52l1,.52Zm-1,30.68h.52v.52a1.55,1.55,0,0,1,1,.52c-.35,0-.52-.08-.52-.26s-.18-.26-.52-.26l.52.52,1.56,1-1-1a1.1,1.1,0,0,1,.78.26,1,1,0,0,0,.78.26l-1-1.56h-1a2.16,2.16,0,0,0-.52-1.56c-.7-.69-1.22-.52-1.56.52l.52.52A.46.46,0,0,0,597.69,153Zm.52,10.92.52-1c-.7-.69-1.22-.86-1.56-.52l-.52.52A1.64,1.64,0,0,0,598.21,163.88Zm-1,8.33.52.51,1-.51a2.36,2.36,0,0,0-2.08-3.13v2.6Zm.52-34.85c0,.35-.09.52-.26.52s-.26.18-.26.52c-.35.35-.18.87.52,1.56a1.51,1.51,0,0,0,.52-1C598.55,138.58,598.38,138.06,597.69,137.36Zm-.52,41.6.52.52c.69-.69.86-1.21.52-1.56l-.52-.52C597,178.1,596.82,178.62,597.17,179Zm1.56-55.64a1.1,1.1,0,0,1,.78.26,1,1,0,0,0,.78.26l-2.08-1A.46.46,0,0,0,598.73,123.32Zm3.64,7.28,1-.52a1.68,1.68,0,0,0-1.56-1l-1,1A2.08,2.08,0,0,0,602.37,130.6Zm1,45.76-1-1a1.66,1.66,0,0,0-1.56,1,1.47,1.47,0,0,0,1,.52C602.19,177.23,602.71,177.06,603.41,176.36Zm2.08-77.48V96.8a1.55,1.55,0,0,0-1-.52l-.52-.52a2.11,2.11,0,0,0,0,3.64l.52.52Zm1.56-13.52-.52-.52c-1,0-1.22.35-.52,1l.52,1C607.22,86.23,607.39,85.71,607.05,85.36Zm2.08,72.28.52,1c-.7.7-1,.87-1,.53l-1-.53A1.66,1.66,0,0,1,609.13,157.64Z"/></g></g></svg>